<svg width="256" height="256" viewBox="0 0 256 256" fill="none" xmlns="http://www.w3.org/2000/svg">
<path d="M0 10C0 4.47715 4.47715 0 10 0H246C251.523 0 256 4.47715 256 10V246C256 251.523 251.523 256 246 256H10C4.47715 256 0 251.523 0 246V10Z" fill="#6750A4"/>
<path d="M95.1511 203.796C111.803 203.796 125.302 190.297 125.302 173.645C125.302 156.992 111.803 143.493 95.1511 143.493C78.4991 143.493 65 156.992 65 173.645C65 190.297 78.4991 203.796 95.1511 203.796Z" stroke="white" stroke-width="12" stroke-linecap="round" stroke-linejoin="round"/>
<path d="M125.302 173.643V68.2568" stroke="white" stroke-width="12" stroke-linecap="round" stroke-linejoin="round"/>
<path d="M145.071 54.0358L178.351 65.1287C186.457 67.831 193 76.9331 193 85.4664V94.2842C193 105.804 184.04 112.204 173.231 108.506L139.951 97.4135C131.845 94.7113 125.302 85.6092 125.302 77.0758V68.2581C125.302 56.8803 134.12 50.338 145.071 54.0358Z" stroke="white" stroke-width="12" stroke-linecap="round" stroke-linejoin="round"/>
<g filter="url(#filter0_dddd_125_2)">
<path d="M144.769 54.0358L178.049 65.1287C186.155 67.831 192.698 76.9331 192.698 85.4664V94.2842C192.698 105.804 183.738 112.204 172.929 108.506L139.649 97.4135C131.543 94.7113 125 85.6092 125 77.0758V68.2581C125 56.8803 133.818 50.338 144.769 54.0358Z" stroke="white" stroke-width="12" stroke-linecap="round" stroke-linejoin="round" shape-rendering="crispEdges"/>
</g>
<g filter="url(#filter1_dddd_125_2)">
<circle cx="95" cy="174" r="25" fill="white"/>
</g>
<defs>
<filter id="filter0_dddd_125_2" x="75" y="3.00195" width="167.698" height="156.551" filterUnits="userSpaceOnUse" color-interpolation-filters="sRGB">
<feFlood flood-opacity="0" result="BackgroundImageFix"/>
<feColorMatrix in="SourceAlpha" type="matrix" values="0 0 0 0 0 0 0 0 0 0 0 0 0 0 0 0 0 0 127 0" result="hardAlpha"/>
<feOffset dy="8"/>
<feGaussianBlur stdDeviation="18"/>
<feComposite in2="hardAlpha" operator="out"/>
<feColorMatrix type="matrix" values="0 0 0 0 0.533333 0 0 0 0 0.533333 0 0 0 0 0.533333 0 0 0 0.25 0"/>
<feBlend mode="normal" in2="BackgroundImageFix" result="effect1_dropShadow_125_2"/>
<feColorMatrix in="SourceAlpha" type="matrix" values="0 0 0 0 0 0 0 0 0 0 0 0 0 0 0 0 0 0 127 0" result="hardAlpha"/>
<feOffset dy="-8"/>
<feGaussianBlur stdDeviation="18"/>
<feComposite in2="hardAlpha" operator="out"/>
<feColorMatrix type="matrix" values="0 0 0 0 0.533333 0 0 0 0 0.533333 0 0 0 0 0.533333 0 0 0 0.25 0"/>
<feBlend mode="normal" in2="effect1_dropShadow_125_2" result="effect2_dropShadow_125_2"/>
<feColorMatrix in="SourceAlpha" type="matrix" values="0 0 0 0 0 0 0 0 0 0 0 0 0 0 0 0 0 0 127 0" result="hardAlpha"/>
<feOffset dx="8"/>
<feGaussianBlur stdDeviation="18"/>
<feComposite in2="hardAlpha" operator="out"/>
<feColorMatrix type="matrix" values="0 0 0 0 0.533333 0 0 0 0 0.533333 0 0 0 0 0.533333 0 0 0 0.25 0"/>
<feBlend mode="normal" in2="effect2_dropShadow_125_2" result="effect3_dropShadow_125_2"/>
<feColorMatrix in="SourceAlpha" type="matrix" values="0 0 0 0 0 0 0 0 0 0 0 0 0 0 0 0 0 0 127 0" result="hardAlpha"/>
<feOffset dx="-8"/>
<feGaussianBlur stdDeviation="18"/>
<feComposite in2="hardAlpha" operator="out"/>
<feColorMatrix type="matrix" values="0 0 0 0 0.533333 0 0 0 0 0.533333 0 0 0 0 0.533333 0 0 0 0.25 0"/>
<feBlend mode="normal" in2="effect3_dropShadow_125_2" result="effect4_dropShadow_125_2"/>
<feBlend mode="normal" in="SourceGraphic" in2="effect4_dropShadow_125_2" result="shape"/>
</filter>
<filter id="filter1_dddd_125_2" x="26" y="105" width="138" height="138" filterUnits="userSpaceOnUse" color-interpolation-filters="sRGB">
<feFlood flood-opacity="0" result="BackgroundImageFix"/>
<feColorMatrix in="SourceAlpha" type="matrix" values="0 0 0 0 0 0 0 0 0 0 0 0 0 0 0 0 0 0 127 0" result="hardAlpha"/>
<feOffset dy="8"/>
<feGaussianBlur stdDeviation="18"/>
<feComposite in2="hardAlpha" operator="out"/>
<feColorMatrix type="matrix" values="0 0 0 0 0 0 0 0 0 0 0 0 0 0 0 0 0 0 0.25 0"/>
<feBlend mode="normal" in2="BackgroundImageFix" result="effect1_dropShadow_125_2"/>
<feColorMatrix in="SourceAlpha" type="matrix" values="0 0 0 0 0 0 0 0 0 0 0 0 0 0 0 0 0 0 127 0" result="hardAlpha"/>
<feOffset dy="-8"/>
<feGaussianBlur stdDeviation="18"/>
<feComposite in2="hardAlpha" operator="out"/>
<feColorMatrix type="matrix" values="0 0 0 0 0 0 0 0 0 0 0 0 0 0 0 0 0 0 0.25 0"/>
<feBlend mode="normal" in2="effect1_dropShadow_125_2" result="effect2_dropShadow_125_2"/>
<feColorMatrix in="SourceAlpha" type="matrix" values="0 0 0 0 0 0 0 0 0 0 0 0 0 0 0 0 0 0 127 0" result="hardAlpha"/>
<feOffset dx="8"/>
<feGaussianBlur stdDeviation="18"/>
<feComposite in2="hardAlpha" operator="out"/>
<feColorMatrix type="matrix" values="0 0 0 0 0 0 0 0 0 0 0 0 0 0 0 0 0 0 0.25 0"/>
<feBlend mode="normal" in2="effect2_dropShadow_125_2" result="effect3_dropShadow_125_2"/>
<feColorMatrix in="SourceAlpha" type="matrix" values="0 0 0 0 0 0 0 0 0 0 0 0 0 0 0 0 0 0 127 0" result="hardAlpha"/>
<feOffset dx="-8"/>
<feGaussianBlur stdDeviation="18"/>
<feComposite in2="hardAlpha" operator="out"/>
<feColorMatrix type="matrix" values="0 0 0 0 0 0 0 0 0 0 0 0 0 0 0 0 0 0 0.25 0"/>
<feBlend mode="normal" in2="effect3_dropShadow_125_2" result="effect4_dropShadow_125_2"/>
<feBlend mode="normal" in="SourceGraphic" in2="effect4_dropShadow_125_2" result="shape"/>
</filter>
</defs>
</svg>
